name C:\Users\u0101727\Documents\MyRepositories\upper-imu-dc\Results\main_tracking\Case_31\FLX01_linearAccelerations_groundFrame.mot
datacolumns 4
datarows 105
range 2.01000000 3.05000000
endheader 
time	radius_imu_x	radius_imu_y	radius_imu_z	
          2.01000000	          0.03560434	          8.78159692	         -0.94297717	
          2.02000000	          0.15412607	          8.66452940	         -1.16613131	
          2.03000000	          0.22855675	          8.59549241	         -1.27612981	
          2.04000000	          0.25348181	          8.58548987	         -1.26069437	
          2.05000000	          0.23308914	          8.63254681	         -1.14135897	
          2.06000000	          0.18095054	          8.72097994	         -0.96615527	
          2.07000000	          0.11501848	          8.82701367	         -0.78950597	
          2.08000000	          0.04947120	          8.92904893	         -0.64952224	
          2.09000000	         -0.01281397	          9.01728934	         -0.55362669	
          2.10000000	         -0.08123303	          9.09564582	         -0.48166662	
          2.11000000	         -0.16669676	          9.17249909	         -0.40792517	
          2.12000000	         -0.26620983	          9.24765299	         -0.32641171	
          2.13000000	         -0.35740032	          9.30791715	         -0.25831775	
          2.14000000	         -0.40751371	          9.33478335	         -0.23880770	
          2.15000000	         -0.38920900	          9.31698612	         -0.29623069	
          2.16000000	         -0.29494859	          9.25959937	         -0.43430017	
          2.17000000	         -0.14482663	          9.18517618	         -0.62230605	
          2.18000000	          0.01708001	          9.12592937	         -0.79989963	
          2.19000000	          0.13924005	          9.11026464	         -0.90049199	
          2.20000000	          0.18269368	          9.15199874	         -0.88134635	
          2.21000000	          0.13109023	          9.24897929	         -0.73889300	
          2.22000000	         -0.01134804	          9.38857400	         -0.50249197	
          2.23000000	         -0.22661012	          9.55390391	         -0.21702572	
          2.24000000	         -0.48911748	          9.72796272	          0.07394961	
          2.25000000	         -0.77007581	          9.89528452	          0.33839674	
          2.26000000	         -1.04111125	         10.04251832	          0.55900123	
          2.27000000	         -1.27729332	         10.15823277	          0.73140346	
          2.28000000	         -1.45907635	         10.23259496	          0.86000554	
          2.29000000	         -1.57272650	         10.25737652	          0.95311986	
          2.30000000	         -1.60910076	         10.22599851	          1.01797972	
          2.31000000	         -1.56146153	         10.13324257	          1.05606913	
          2.32000000	         -1.42395677	          9.97522627	          1.06017610	
          2.33000000	         -1.19226488	          9.75079471	          1.01493700	
          2.34000000	         -0.86700193	          9.46481513	          0.90216519	
          2.35000000	         -0.45925058	          9.13231360	          0.71085124	
          2.36000000	          0.00398455	          8.78083200	          0.44915946	
          2.37000000	          0.47771319	          8.44826471	          0.15284876	
          2.38000000	          0.90469374	          8.17502646	         -0.11820831	
          2.39000000	          1.23107010	          7.99274954	         -0.30077318	
          2.40000000	          1.42383287	          7.91589503	         -0.35626863	
          2.41000000	          1.47742278	          7.94135399	         -0.28557572	
          2.42000000	          1.40849110	          8.05378137	         -0.12317174	
          2.43000000	          1.24736062	          8.23123683	          0.07966920	
          2.44000000	          1.03063136	          8.44909027	          0.27179843	
          2.45000000	          0.79434768	          8.68292458	          0.41417359	
          2.46000000	          0.56803482	          8.91086211	          0.48507178	
          2.47000000	          0.37146606	          9.11499554	          0.47900748	
          2.48000000	          0.21467958	          9.28211370	          0.40227267	
          2.49000000	          0.09981879	          9.40464558	          0.26857231	
          2.50000000	          0.02338336	          9.48197264	          0.09618501	
          2.51000000	         -0.02161973	          9.52074202	         -0.09412515	
          2.52000000	         -0.04386499	          9.53287931	         -0.28146606	
          2.53000000	         -0.05227951	          9.53178976	         -0.44745509	
          2.54000000	         -0.05470914	          9.52858615	         -0.57845744	
          2.55000000	         -0.05656136	          9.52995287	         -0.66679911	
          2.56000000	         -0.05981224	          9.53826222	         -0.71068645	
          2.57000000	         -0.06285425	          9.55332145	         -0.71303348	
          2.58000000	         -0.06162797	          9.57423170	         -0.67999805	
          2.59000000	         -0.05172218	          9.59996736	         -0.61990355	
          2.60000000	         -0.03090334	          9.62846113	         -0.54262016	
          2.61000000	         -0.00101054	          9.65547361	         -0.45867570	
          2.62000000	          0.03242347	          9.67453365	         -0.37805243	
          2.63000000	          0.06197841	          9.67873550	         -0.30841135	
          2.64000000	          0.08209956	          9.66276531	         -0.25453172	
          2.65000000	          0.09041128	          9.62517512	         -0.21766114	
          2.66000000	          0.08853062	          9.56921638	         -0.19611988	
          2.67000000	          0.08153814	          9.50241218	         -0.18596316	
          2.68000000	          0.07588764	          9.43527104	         -0.18167563	
          2.69000000	          0.07641840	          9.37927415	         -0.17672334	
          2.70000000	          0.08386064	          9.34449858	         -0.16441577	
          2.71000000	          0.09452019	          9.33719536	         -0.13927385	
          2.72000000	          0.10228386	          9.35789457	         -0.09858730	
          2.73000000	          0.10157448	          9.40091301	         -0.04342801	
          2.74000000	          0.08949361	          9.45594457	          0.02157553	
          2.75000000	          0.06632933	          9.51140218	          0.08974325	
          2.76000000	          0.03495789	          9.55805634	          0.15437441	
          2.77000000	          0.00008061	          9.59117965	          0.21023890	
          2.78000000	         -0.03242693	          9.61017236	          0.25385586	
          2.79000000	         -0.05646157	          9.61626106	          0.28284846	
          2.80000000	         -0.06713888	          9.61022366	          0.29537740	
          2.81000000	         -0.06226993	          9.59191357	          0.29043853	
          2.82000000	         -0.04312204	          9.56170667	          0.26893829	
          2.83000000	         -0.01385613	          9.52228928	          0.23459902	
          2.84000000	          0.02040297	          9.47888742	          0.19364200	
          2.85000000	          0.05600684	          9.43742878	          0.15312297	
          2.86000000	          0.09234759	          9.40203777	          0.11894295	
          2.87000000	          0.13151990	          9.37383834	          0.09481251	
          2.88000000	          0.17635790	          9.35169852	          0.08252670	
          2.89000000	          0.22840286	          9.33386547	          0.08276964	
          2.90000000	          0.28718948	          9.31916447	          0.09555977	
          2.91000000	          0.35100756	          9.30734515	          0.12022681	
          2.92000000	          0.41832265	          9.29901853	          0.15538347	
          2.93000000	          0.48877239	          9.29569998	          0.19924483	
          2.94000000	          0.56320877	          9.29988244	          0.25016248	
          2.95000000	          0.64295419	          9.31465499	          0.30687089	
          2.96000000	          0.72895571	          9.34246400	          0.36806260	
          2.97000000	          0.82088206	          9.38337699	          0.43148579	
          2.98000000	          0.91636773	          9.43386160	          0.49328126	
          2.99000000	          1.01078376	          9.48707145	          0.54819053	
          3.00000000	          1.09799645	          9.53479825	          0.59065357	
          3.01000000	          1.17187664	          9.57026479	          0.61631724	
          3.02000000	          1.22766129	          9.59044427	          0.62333601	
          3.03000000	          1.26238821	          9.59686516	          0.61290434	
          3.04000000	          1.27428049	          9.59461984	          0.58876684	
          3.05000000	          1.26155096	          9.59004616	          0.55599016	
